<?xml version="1.0" encoding="UTF-8" standalone="no"?>
<!-- Created with Inkscape (http://www.inkscape.org/) -->

<svg
   version="1.1"
   id="svg897"
   width="531.35388"
   height="75.281448"
   viewBox="0 0 531.35388 75.281448"
   sodipodi:docname="logo.svg"
   inkscape:export-filename="logo.svg"
   inkscape:export-xdpi="96"
   inkscape:export-ydpi="96"
   inkscape:version="1.2.2 (b0a8486541, 2022-12-01)"
   xmlns:inkscape="http://www.inkscape.org/namespaces/inkscape"
   xmlns:sodipodi="http://sodipodi.sourceforge.net/DTD/sodipodi-0.dtd"
   xmlns="http://www.w3.org/2000/svg"
   xmlns:svg="http://www.w3.org/2000/svg">
  <defs
     id="defs901" />
  <sodipodi:namedview
     id="namedview899"
     pagecolor="#ffffff"
     bordercolor="#000000"
     borderopacity="0.25"
     inkscape:showpageshadow="2"
     inkscape:pageopacity="0.0"
     inkscape:pagecheckerboard="0"
     inkscape:deskcolor="#d1d1d1"
     showgrid="false"
     inkscape:zoom="1.640663"
     inkscape:cx="339.19214"
     inkscape:cy="94.474002"
     inkscape:window-width="1920"
     inkscape:window-height="1011"
     inkscape:window-x="0"
     inkscape:window-y="32"
     inkscape:window-maximized="1"
     inkscape:current-layer="g903" />
  <g
     inkscape:groupmode="layer"
     inkscape:label="Image"
     id="g903"
     transform="translate(-10.144232,-35.221424)">
    <path
       style="fill:#65ff65;fill-opacity:1;stroke-width:0.808563"
       d="m 265.65857,109.76757 c -1.19586,-0.37956 -2.71065,-1.54022 -3.3662,-2.57923 -0.65555,-1.03902 -2.82055,-2.81765 -4.81112,-3.9525 -4.75635,-2.71168 -6.03053,-4.262628 -6.10425,-7.430133 -0.0752,-3.234393 -3.59172,-13.664386 -4.6931,-13.919976 -4.19908,-0.974456 -5.72863,-4.825889 -4.12497,-10.386839 0.61289,-2.125328 1.24106,-6.919063 1.39591,-10.65275 0.467,-11.259899 1.26787,-12.595792 11.51349,-19.205156 4.84641,-3.126378 9.83558,-5.79329 11.08705,-5.926469 1.25146,-0.133179 4.35463,0.140899 6.89593,0.609063 2.54131,0.468163 7.01387,1.149183 9.93901,1.513378 5.59681,0.696828 9.46686,2.56752 12.85262,6.212652 2.83114,3.048031 5.28042,10.055286 5.10604,14.608089 -0.0904,2.360918 0.5718,5.645837 1.54807,7.679113 1.48556,3.093966 1.52695,3.788578 0.32017,5.373691 -0.85205,1.119169 -1.5915,5.022005 -1.91958,10.131562 -0.50378,7.846078 -0.68103,8.414305 -3.16763,10.154676 -1.44869,1.013952 -3.84609,3.548733 -5.32755,5.632864 -2.07635,2.921005 -3.98813,4.406915 -8.34307,6.484545 -3.10721,1.48239 -6.85909,3.53606 -8.3375,4.56373 -2.84917,1.9805 -6.46896,2.35749 -10.46332,1.08969 z m 11.8583,-22.806266 c 2.45161,-3.305378 4.19858,-15.934113 2.86121,-20.683598 -2.152,-7.642601 -7.16892,-10.058652 -11.70687,-5.637804 -2.91549,2.840257 -4.07228,7.720796 -2.2657,9.558976 0.80933,0.823478 1.56378,4.247857 1.8983,8.616112 0.41466,5.414918 1.00946,7.704687 2.35039,9.048258 2.3141,2.318625 4.70726,2.004094 6.86267,-0.901944 z m 169.25498,20.636926 c -1.19305,-0.90082 -2.87406,-1.64433 -3.73557,-1.65224 -0.86151,-0.008 -3.36797,-0.5517 -5.5699,-1.2084 -5.30363,-1.58177 -11.46416,-7.898344 -11.46416,-11.754518 0,-1.548158 -1.06393,-3.971446 -2.59332,-5.906727 -2.23547,-2.828748 -2.47267,-3.673343 -1.71889,-6.120507 0.48095,-1.56141 0.63757,-4.165586 0.34803,-5.787059 -0.28953,-1.621473 -0.52373,-8.402176 -0.52045,-15.068229 0.006,-11.702783 0.0918,-12.220958 2.49842,-15.049382 1.95457,-2.297145 3.8564,-3.392831 8.81296,-5.077338 3.75082,-1.274733 7.80651,-2.149809 9.9755,-2.152371 2.01025,-0.0023 5.00218,-0.590057 6.64873,-1.305964 3.8374,-1.668456 3.79308,-1.672322 7.88853,0.688387 2.35183,1.355654 5.07908,2.165933 8.47704,2.518573 8.1092,0.841576 10.18121,2.61217 11.19711,9.568278 0.36836,2.522291 0.99361,5.806501 1.38943,7.298246 0.91553,3.450313 -1.69292,8.89214 -5.10754,10.655484 -3.6142,1.866403 -9.86865,2.39558 -12.90034,1.091464 -2.15389,-0.92652 -2.46196,-1.539606 -2.46196,-4.899431 0,-3.462264 -0.27021,-3.958376 -2.74426,-5.038681 -3.33271,-1.455233 -6.15287,-1.287512 -8.48227,0.504456 -2.19427,1.688016 -2.30536,6.813345 -0.29701,13.703671 1.26297,4.33306 1.26447,5.426456 0.0117,8.516825 -1.97731,4.877609 -1.81871,8.050997 0.5551,11.105763 1.6266,2.093194 2.55803,2.594459 4.82095,2.594459 2.05998,0 3.17132,-0.478437 4.18489,-1.801636 3.32372,-4.339047 4.98695,-5.404905 8.43406,-5.404905 1.84441,0 4.05913,0.463273 4.92161,1.029504 1.98753,1.304825 2.05778,6.054109 0.13224,8.939161 -0.78975,1.183278 -1.68854,2.941547 -1.99732,3.907257 -0.75191,2.35157 -3.14187,3.81286 -6.23596,3.81286 -1.40062,0 -4.07167,0.88218 -5.95094,1.96543 -4.15031,2.39234 -5.70268,2.45205 -8.51637,0.32757 z M 74.308796,106.89629 c -1.655409,-1.0868 -1.798448,-1.737 -2.038018,-9.26417 -0.112938,-3.548446 -0.60219,-5.052736 -1.964846,-6.041255 -3.231251,-2.344059 -3.60396,-6.224397 -1.504951,-15.668321 1.06911,-4.810171 1.943837,-10.023917 1.943837,-11.586091 0,-1.562178 0.43298,-3.587974 0.962178,-4.501769 0.5292,-0.913794 1.676288,-4.363523 2.549085,-7.666064 1.643339,-6.218156 5.578264,-12.370411 9.337573,-14.599296 1.788972,-1.060678 2.918654,-1.165822 7.842949,-0.729975 3.164116,0.280055 8.761197,0.451414 12.437957,0.380799 6.36299,-0.122206 6.86774,-0.01838 10.4781,2.15543 l 3.79307,2.283823 0.0551,9.384359 c 0.0431,7.344212 0.42031,9.910059 1.73514,11.802496 2.39509,3.447238 4.71486,13.814782 4.2964,19.201497 -1.1528,14.839815 -2.90694,21.470397 -6.36948,24.076407 -2.64843,1.99327 -5.10761,1.40531 -7.13973,-1.70705 -1.02474,-1.56945 -2.58049,-3.03427 -3.45724,-3.25514 -1.15182,-0.29017 -1.59513,-1.270691 -1.59782,-3.534075 -0.009,-7.499741 -10.720772,-11.738811 -14.531785,-5.75076 -0.78712,1.236743 -1.43112,2.806588 -1.43112,3.48853 0,0.681951 -1.184984,2.386277 -2.633299,3.787409 -1.448313,1.401126 -3.083617,3.432266 -3.634008,4.513626 -2.036504,4.00115 -5.881762,5.36149 -9.129082,3.22959 z M 101.17346,76.722438 c 1.8885,-1.892215 1.58254,-4.988402 -0.96283,-9.742914 -0.771605,-1.441309 -1.686194,-4.038097 -2.032393,-5.77064 -0.560598,-2.80545 -2.553415,-4.557875 -4.059051,-3.569409 -0.26922,0.176745 -0.890929,2.497968 -1.381575,5.158273 -0.490646,2.660304 -1.37366,5.866817 -1.962255,7.125584 -2.407934,5.149601 -0.287911,8.521149 5.358086,8.521149 2.484887,0 3.754178,-0.433683 5.040018,-1.722043 z m 92.7997,29.800532 c -1.63885,-0.77156 -4.66368,-3.26652 -6.72187,-5.54436 -3.41839,-3.783202 -3.74218,-4.560813 -3.74218,-8.987203 0,-4.121172 -0.44444,-5.392433 -2.9726,-8.502757 -3.90172,-4.800168 -4.56031,-7.853961 -2.72424,-12.631873 2.56471,-6.674063 2.93636,-9.289802 1.67612,-11.796749 -1.17259,-2.33256 -1.07792,-3.024478 1.63357,-11.939726 0.27696,-0.910609 1.67894,-1.85153 3.51328,-2.357883 1.73646,-0.479339 3.98922,-1.939023 5.2254,-3.38583 1.19514,-1.398779 3.28613,-2.913 4.64665,-3.364936 3.85844,-1.2817 10.7442,-1.045454 13.67736,0.469264 1.82972,0.944882 4.04832,1.31028 7.95572,1.31028 3.30078,0 7.33129,0.540234 10.31287,1.382299 4.37076,1.234405 5.095,1.742594 6.76906,4.749769 2.32989,4.185254 2.52678,19.20183 0.27512,20.982995 -0.73357,0.580284 -3.88431,1.975602 -7.00164,3.100707 -3.13836,1.132692 -6.42478,2.91145 -7.36384,3.985651 -1.9423,2.221791 -4.03367,2.13604 -4.52286,-0.185437 -0.18389,-0.872595 -1.50731,-2.400355 -2.94096,-3.395023 -2.3871,-1.656161 -2.50602,-1.991155 -1.41203,-3.97735 1.73666,-3.152977 1.51822,-7.993641 -0.41809,-9.264842 -3.83156,-2.515456 -5.91883,0.341425 -7.42199,10.158571 -1.79056,11.694198 0.26108,24.632445 4.1927,26.44036 3.47959,1.600035 8.58211,-0.0453 11.45622,-3.694126 1.12117,-1.423378 2.12486,-1.803187 4.76522,-1.803187 4.0609,0 5.59786,1.098378 6.29213,4.496584 0.39366,1.926835 -0.11635,3.476212 -2.00871,6.102347 -3.40602,4.726705 -5.41171,5.761265 -12.43234,6.412745 -3.27649,0.30406 -7.34223,1.02301 -9.03495,1.59768 -4.21295,1.43027 -8.12994,1.31015 -11.67312,-0.35797 z m 297.22885,-0.0713 c -3.00594,-2.20627 -6.32286,-6.0638 -6.32286,-7.353378 0,-0.626278 1.27763,-2.212949 2.83918,-3.52595 1.56154,-1.312991 4.10159,-3.861337 5.64453,-5.66297 1.54295,-1.80164 4.90793,-4.749768 7.47775,-6.551406 2.56981,-1.801636 7.07453,-5.631691 10.01049,-8.511244 4.35162,-4.268016 5.41782,-5.866597 5.76945,-8.650349 0.92334,-7.309756 -2.11123,-8.710773 -8.23702,-3.8029 -4.30537,3.449394 -7.55098,3.837008 -11.09673,1.325242 -1.37805,-0.976194 -3.93229,-1.795196 -6.4099,-2.055295 -6.45948,-0.678118 -8.36208,-2.064337 -8.22577,-5.993235 0.23448,-6.758098 9.93712,-15.633173 20.68943,-18.924781 8.17067,-2.501288 11.85294,-2.089456 22.14457,2.476691 5.39544,2.393822 9.53694,5.654943 12.88211,10.143674 2.53986,3.408128 2.87486,4.607607 3.08506,11.046062 0.31008,9.497387 -0.88303,12.83597 -5.79977,16.22919 -2.12996,1.469959 -5.19886,4.024842 -6.81979,5.677513 -1.62092,1.65267 -5.37705,4.502249 -8.34692,6.332402 -6.45231,3.976147 -9.32506,6.654522 -8.04137,7.497277 0.55912,0.367083 5.65366,0.317033 13.02517,-0.127933 6.65878,-0.401942 12.82368,-0.550223 13.69979,-0.329503 2.41921,0.609466 2.22287,7.613143 -0.26252,9.364543 -1.70215,1.19948 -2.94222,1.2919 -15.00906,1.1186 -9.61257,-0.13806 -14.28447,0.0697 -17.35438,0.77191 -6.50315,1.48744 -12.92335,1.28063 -15.34144,-0.49416 z m -466.489232,-0.9827 c -0.595716,-0.9909 -1.478499,-2.24386 -1.961741,-2.78435 -3.662899,-4.096831 -3.966419,-4.960139 -4.546658,-12.932149 -0.528643,-7.263111 -0.885231,-8.559667 -2.71796,-9.8825 -1.870304,-1.349956 -2.183565,-2.612772 -2.762801,-11.137387 -0.35932,-5.288138 -1.196764,-11.383674 -1.860985,-13.545638 -1.4193058,-4.619679 -0.648062,-12.00824 1.543948,-14.791105 1.472194,-1.869024 1.695763,-1.914974 9.317163,-1.914974 4.294825,0 9.166058,-0.310629 10.824963,-0.690288 2.377787,-0.544181 4.771697,-0.396025 11.310247,0.699979 5.949277,0.997229 9.660075,1.266922 13.125997,0.953973 3.699881,-0.334073 5.437229,-0.175919 7.41547,0.675043 2.433852,1.046952 2.544425,1.325829 1.908562,4.813652 -0.371232,2.036274 -0.986416,5.865027 -1.367076,8.508341 -0.629956,4.374428 -0.995813,4.984174 -4.074,6.789813 -3.605308,2.114843 -2.860917,2.077536 -15.364938,0.770042 -2.838251,-0.296784 -4.275438,-0.105582 -5.738006,0.763378 -4.280831,2.543384 -1.273786,5.542245 5.557371,5.542245 8.605596,0 11.495435,2.085823 8.967168,6.472302 -0.75197,1.304653 -2.091024,4.081242 -2.975675,6.170197 -1.7885,4.223251 -3.598607,5.141028 -6.610357,3.351653 -1.540379,-0.915192 -2.415983,-1.033877 -3.705009,-0.502211 -1.391804,0.57406 -1.775474,2.142371 -2.186894,8.939277 -0.466538,7.707481 -0.665454,8.362837 -3.061458,10.086087 -1.409375,1.01364 -3.328238,2.65372 -4.264139,3.64462 -0.936666,0.99172 -2.598141,1.80164 -3.695856,1.80164 -1.247659,0 -2.399695,-0.67446 -3.077336,-1.80164 z m 302.495952,0.16379 c -1.28905,-0.90083 -2.88406,-1.63786 -3.54446,-1.63786 -0.6604,0 -1.72065,-0.41127 -2.35611,-0.91395 -3.04839,-2.41141 -4.98411,-19.291339 -2.50328,-21.829125 2.04172,-2.088594 1.74721,-4.556979 -0.73841,-6.188816 -1.81432,-1.191118 -2.35589,-2.740616 -3.41003,-9.756477 -0.68924,-4.58726 -1.56788,-11.983718 -1.95254,-16.436573 -0.64585,-7.476513 -0.5484,-8.21818 1.27342,-9.691297 1.6684,-1.349062 3.03385,-1.635286 8.8495,-1.855017 10.20089,-0.385417 12.60952,-0.273806 14.00984,0.6492 0.69724,0.459576 3.91609,4.078537 7.15301,8.042136 4.34503,5.320461 6.44506,7.261335 8.02403,7.415895 2.46765,0.24155 2.33402,0.760777 2.28718,-8.886709 -0.0425,-8.764427 -0.1499,-8.683862 11.57017,-8.683862 12.37853,0 12.36463,-0.0173 10.7915,13.430378 -0.42151,3.603272 -0.84283,11.563227 -0.93626,17.688791 -0.0934,6.125563 -0.52874,11.513438 -0.96737,11.973045 -0.43864,0.459613 -0.78431,4.019666 -0.76816,7.911218 0.0304,7.334705 -1.55864,12.532951 -4.41957,14.457533 -0.84684,0.56968 -2.16636,1.62541 -2.93227,2.34607 -2.06675,1.94463 -4.5122,0.63677 -7.49694,-4.009497 -1.37213,-2.135954 -3.24408,-4.613531 -4.1599,-5.505728 -0.91582,-0.892196 -2.19535,-2.948827 -2.8434,-4.570301 -0.64806,-1.621466 -1.77192,-3.68516 -2.49746,-4.585977 -0.72554,-0.90082 -2.69421,-3.650405 -4.3748,-6.110195 -3.79271,-5.551214 -6.13297,-5.795987 -7.29047,-0.762531 -0.41352,1.798197 -1.24733,4.835041 -1.85293,6.748534 -0.80817,2.553515 -0.80256,4.296438 0.0211,6.551409 0.88749,2.429762 0.81374,4.034641 -0.35259,7.673564 -2.74637,8.568552 -4.14754,9.635602 -8.5828,6.536142 z m -189.54801,-0.29103 c -2.55595,-1.67801 -3.51884,-5.30687 -2.13736,-8.054981 1.47413,-2.932409 0.86329,-17.359217 -0.82157,-19.403491 -0.82171,-0.997013 -1.04896,-2.621446 -0.64152,-4.585983 0.98907,-4.769068 0.62186,-20.83599 -0.61034,-26.704726 -1.98867,-9.471572 0.46755,-11.287424 14.88001,-11.00059 4.80395,0.09561 9.04373,0.195098 9.42174,0.221089 1.52202,0.104651 2.02088,6.528303 0.96633,12.443066 -0.6154,3.451631 -1.53697,10.63679 -2.04791,15.96702 -0.53063,5.535407 -1.43025,10.087826 -2.09785,10.615929 -0.90084,0.712596 -0.80632,1.743296 0.41217,4.495029 0.86955,1.963724 1.581,5.467703 1.581,7.786617 0,3.882297 0.20131,4.276423 2.54175,4.976507 3.44237,1.029703 7.47855,0.955892 11.74642,-0.21482 5.25155,-1.440538 6.24573,-0.45247 6.4712,6.43149 0.16786,5.124224 -0.009,5.701194 -2.02753,6.629564 -2.85217,1.31153 -10.0491,1.30061 -15.32932,-0.0233 -3.89864,-0.97749 -4.59583,-0.95776 -11.57303,0.32757 -8.9962,1.65724 -8.36146,1.65168 -10.73419,0.094 z"
       id="path2113"
       inkscape:export-filename="Falcon C2/static/custom/img/logo.png"
       inkscape:export-xdpi="66.835632"
       inkscape:export-ydpi="66.835632" />
  </g>
</svg>
